<mxfile host="app.diagrams.net" agent="Mozilla/5.0 (Windows NT 10.0; Win64; x64) AppleWebKit/537.36 (KHTML, like Gecko) Chrome/131.0.0.0 Safari/537.36" version="25.0.3">
  <diagram name="Page-1" id="f85BPJmWYStcgmXrGDqM">
    <mxGraphModel dx="1358" dy="567" grid="1" gridSize="10" guides="1" tooltips="1" connect="1" arrows="1" fold="1" page="1" pageScale="1" pageWidth="850" pageHeight="1100" math="0" shadow="0">
      <root>
        <mxCell id="0" />
        <mxCell id="1" parent="0" />
        <mxCell id="gmwgh-llrA10mUrHJ3mJ-2" value="lcd_command()" style="shape=process;whiteSpace=wrap;html=1;backgroundOutline=1;" vertex="1" parent="1">
          <mxGeometry x="150" y="120" width="120" height="40" as="geometry" />
        </mxCell>
        <mxCell id="gmwgh-llrA10mUrHJ3mJ-3" value="Установка режима передачи команды" style="rounded=0;whiteSpace=wrap;html=1;" vertex="1" parent="1">
          <mxGeometry x="150" y="200" width="120" height="40" as="geometry" />
        </mxCell>
        <mxCell id="gmwgh-llrA10mUrHJ3mJ-4" value="Отправка старшего полубайта команды" style="rounded=0;whiteSpace=wrap;html=1;" vertex="1" parent="1">
          <mxGeometry x="150" y="280" width="120" height="40" as="geometry" />
        </mxCell>
        <mxCell id="gmwgh-llrA10mUrHJ3mJ-5" value="Отправка младшего полубайта команды" style="rounded=0;whiteSpace=wrap;html=1;" vertex="1" parent="1">
          <mxGeometry x="150" y="360" width="120" height="40" as="geometry" />
        </mxCell>
        <mxCell id="gmwgh-llrA10mUrHJ3mJ-6" value="return" style="rounded=1;whiteSpace=wrap;html=1;" vertex="1" parent="1">
          <mxGeometry x="170" y="440" width="80" height="40" as="geometry" />
        </mxCell>
        <mxCell id="gmwgh-llrA10mUrHJ3mJ-7" value="" style="endArrow=none;html=1;rounded=0;entryX=0.5;entryY=1;entryDx=0;entryDy=0;exitX=0.5;exitY=0;exitDx=0;exitDy=0;" edge="1" parent="1" source="gmwgh-llrA10mUrHJ3mJ-3" target="gmwgh-llrA10mUrHJ3mJ-2">
          <mxGeometry width="50" height="50" relative="1" as="geometry">
            <mxPoint x="300" y="330" as="sourcePoint" />
            <mxPoint x="350" y="280" as="targetPoint" />
          </mxGeometry>
        </mxCell>
        <mxCell id="gmwgh-llrA10mUrHJ3mJ-8" value="" style="endArrow=none;html=1;rounded=0;entryX=0.5;entryY=1;entryDx=0;entryDy=0;exitX=0.5;exitY=0;exitDx=0;exitDy=0;" edge="1" parent="1">
          <mxGeometry width="50" height="50" relative="1" as="geometry">
            <mxPoint x="209.66000000000003" y="280" as="sourcePoint" />
            <mxPoint x="209.66000000000003" y="240" as="targetPoint" />
          </mxGeometry>
        </mxCell>
        <mxCell id="gmwgh-llrA10mUrHJ3mJ-9" value="" style="endArrow=none;html=1;rounded=0;entryX=0.5;entryY=1;entryDx=0;entryDy=0;exitX=0.5;exitY=0;exitDx=0;exitDy=0;" edge="1" parent="1">
          <mxGeometry width="50" height="50" relative="1" as="geometry">
            <mxPoint x="209.66000000000003" y="360" as="sourcePoint" />
            <mxPoint x="209.66000000000003" y="320" as="targetPoint" />
          </mxGeometry>
        </mxCell>
        <mxCell id="gmwgh-llrA10mUrHJ3mJ-10" value="" style="endArrow=none;html=1;rounded=0;entryX=0.5;entryY=1;entryDx=0;entryDy=0;exitX=0.5;exitY=0;exitDx=0;exitDy=0;" edge="1" parent="1">
          <mxGeometry width="50" height="50" relative="1" as="geometry">
            <mxPoint x="209.66000000000003" y="440" as="sourcePoint" />
            <mxPoint x="209.66000000000003" y="400" as="targetPoint" />
          </mxGeometry>
        </mxCell>
        <mxCell id="gmwgh-llrA10mUrHJ3mJ-11" value="lcd_init()" style="shape=process;whiteSpace=wrap;html=1;backgroundOutline=1;" vertex="1" parent="1">
          <mxGeometry x="480" y="120" width="120" height="40" as="geometry" />
        </mxCell>
        <mxCell id="gmwgh-llrA10mUrHJ3mJ-12" value="настройка портов А" style="rounded=0;whiteSpace=wrap;html=1;" vertex="1" parent="1">
          <mxGeometry x="480" y="190" width="120" height="40" as="geometry" />
        </mxCell>
        <mxCell id="gmwgh-llrA10mUrHJ3mJ-13" value="задержка 20 мс" style="rounded=0;whiteSpace=wrap;html=1;" vertex="1" parent="1">
          <mxGeometry x="480" y="260" width="120" height="40" as="geometry" />
        </mxCell>
        <mxCell id="gmwgh-llrA10mUrHJ3mJ-14" value="инициализация дисплея" style="rounded=0;whiteSpace=wrap;html=1;" vertex="1" parent="1">
          <mxGeometry x="480" y="330" width="120" height="40" as="geometry" />
        </mxCell>
        <mxCell id="gmwgh-llrA10mUrHJ3mJ-15" value="Установка параметров дисплея" style="rounded=0;whiteSpace=wrap;html=1;" vertex="1" parent="1">
          <mxGeometry x="480" y="400" width="120" height="40" as="geometry" />
        </mxCell>
        <mxCell id="gmwgh-llrA10mUrHJ3mJ-16" value="Задержка после очистки дисплея" style="rounded=0;whiteSpace=wrap;html=1;" vertex="1" parent="1">
          <mxGeometry x="480" y="470" width="120" height="40" as="geometry" />
        </mxCell>
        <mxCell id="gmwgh-llrA10mUrHJ3mJ-17" value="return" style="rounded=1;whiteSpace=wrap;html=1;" vertex="1" parent="1">
          <mxGeometry x="500" y="540" width="80" height="40" as="geometry" />
        </mxCell>
        <mxCell id="gmwgh-llrA10mUrHJ3mJ-18" value="" style="endArrow=none;html=1;rounded=0;entryX=0.5;entryY=1;entryDx=0;entryDy=0;exitX=0.5;exitY=0;exitDx=0;exitDy=0;" edge="1" parent="1" source="gmwgh-llrA10mUrHJ3mJ-12" target="gmwgh-llrA10mUrHJ3mJ-11">
          <mxGeometry width="50" height="50" relative="1" as="geometry">
            <mxPoint x="590" y="230" as="sourcePoint" />
            <mxPoint x="640" y="180" as="targetPoint" />
          </mxGeometry>
        </mxCell>
        <mxCell id="gmwgh-llrA10mUrHJ3mJ-19" value="" style="endArrow=none;html=1;rounded=0;entryX=0.5;entryY=1;entryDx=0;entryDy=0;exitX=0.5;exitY=0;exitDx=0;exitDy=0;" edge="1" parent="1">
          <mxGeometry width="50" height="50" relative="1" as="geometry">
            <mxPoint x="539.76" y="260" as="sourcePoint" />
            <mxPoint x="539.76" y="230" as="targetPoint" />
          </mxGeometry>
        </mxCell>
        <mxCell id="gmwgh-llrA10mUrHJ3mJ-20" value="" style="endArrow=none;html=1;rounded=0;entryX=0.5;entryY=1;entryDx=0;entryDy=0;exitX=0.5;exitY=0;exitDx=0;exitDy=0;" edge="1" parent="1">
          <mxGeometry width="50" height="50" relative="1" as="geometry">
            <mxPoint x="539.76" y="330" as="sourcePoint" />
            <mxPoint x="539.76" y="300" as="targetPoint" />
          </mxGeometry>
        </mxCell>
        <mxCell id="gmwgh-llrA10mUrHJ3mJ-21" value="" style="endArrow=none;html=1;rounded=0;entryX=0.5;entryY=1;entryDx=0;entryDy=0;exitX=0.5;exitY=0;exitDx=0;exitDy=0;" edge="1" parent="1">
          <mxGeometry width="50" height="50" relative="1" as="geometry">
            <mxPoint x="539.76" y="400" as="sourcePoint" />
            <mxPoint x="539.76" y="370" as="targetPoint" />
          </mxGeometry>
        </mxCell>
        <mxCell id="gmwgh-llrA10mUrHJ3mJ-22" value="" style="endArrow=none;html=1;rounded=0;entryX=0.5;entryY=1;entryDx=0;entryDy=0;exitX=0.5;exitY=0;exitDx=0;exitDy=0;" edge="1" parent="1">
          <mxGeometry width="50" height="50" relative="1" as="geometry">
            <mxPoint x="539.76" y="470" as="sourcePoint" />
            <mxPoint x="539.76" y="440" as="targetPoint" />
          </mxGeometry>
        </mxCell>
        <mxCell id="gmwgh-llrA10mUrHJ3mJ-23" value="" style="endArrow=none;html=1;rounded=0;entryX=0.5;entryY=1;entryDx=0;entryDy=0;exitX=0.5;exitY=0;exitDx=0;exitDy=0;" edge="1" parent="1">
          <mxGeometry width="50" height="50" relative="1" as="geometry">
            <mxPoint x="539.76" y="540" as="sourcePoint" />
            <mxPoint x="539.76" y="510" as="targetPoint" />
          </mxGeometry>
        </mxCell>
        <mxCell id="gmwgh-llrA10mUrHJ3mJ-24" value="lcd_print(str)" style="shape=process;whiteSpace=wrap;html=1;backgroundOutline=1;" vertex="1" parent="1">
          <mxGeometry x="670" y="120" width="120" height="40" as="geometry" />
        </mxCell>
        <mxCell id="gmwgh-llrA10mUrHJ3mJ-25" value="str ?" style="rhombus;whiteSpace=wrap;html=1;" vertex="1" parent="1">
          <mxGeometry x="690" y="190" width="80" height="60" as="geometry" />
        </mxCell>
        <mxCell id="gmwgh-llrA10mUrHJ3mJ-26" value="lcd_data(str)" style="shape=process;whiteSpace=wrap;html=1;backgroundOutline=1;" vertex="1" parent="1">
          <mxGeometry x="670" y="280" width="120" height="40" as="geometry" />
        </mxCell>
        <mxCell id="gmwgh-llrA10mUrHJ3mJ-27" value="" style="endArrow=classic;html=1;rounded=0;exitX=0.5;exitY=1;exitDx=0;exitDy=0;entryX=0.5;entryY=0;entryDx=0;entryDy=0;" edge="1" parent="1" source="gmwgh-llrA10mUrHJ3mJ-25" target="gmwgh-llrA10mUrHJ3mJ-26">
          <mxGeometry width="50" height="50" relative="1" as="geometry">
            <mxPoint x="660" y="270" as="sourcePoint" />
            <mxPoint x="710" y="220" as="targetPoint" />
          </mxGeometry>
        </mxCell>
        <mxCell id="gmwgh-llrA10mUrHJ3mJ-28" value="" style="endArrow=classic;html=1;rounded=0;exitX=0.5;exitY=1;exitDx=0;exitDy=0;entryX=0;entryY=0.5;entryDx=0;entryDy=0;" edge="1" parent="1" source="gmwgh-llrA10mUrHJ3mJ-26" target="gmwgh-llrA10mUrHJ3mJ-25">
          <mxGeometry width="50" height="50" relative="1" as="geometry">
            <mxPoint x="660" y="270" as="sourcePoint" />
            <mxPoint x="710" y="220" as="targetPoint" />
            <Array as="points">
              <mxPoint x="730" y="340" />
              <mxPoint x="650" y="340" />
              <mxPoint x="650" y="220" />
            </Array>
          </mxGeometry>
        </mxCell>
        <mxCell id="gmwgh-llrA10mUrHJ3mJ-29" value="" style="endArrow=none;html=1;rounded=0;entryX=0.5;entryY=1;entryDx=0;entryDy=0;exitX=0.5;exitY=0;exitDx=0;exitDy=0;" edge="1" parent="1" source="gmwgh-llrA10mUrHJ3mJ-25" target="gmwgh-llrA10mUrHJ3mJ-24">
          <mxGeometry width="50" height="50" relative="1" as="geometry">
            <mxPoint x="660" y="300" as="sourcePoint" />
            <mxPoint x="710" y="250" as="targetPoint" />
          </mxGeometry>
        </mxCell>
        <mxCell id="gmwgh-llrA10mUrHJ3mJ-30" value="return" style="rounded=1;whiteSpace=wrap;html=1;" vertex="1" parent="1">
          <mxGeometry x="690" y="380" width="80" height="40" as="geometry" />
        </mxCell>
        <mxCell id="gmwgh-llrA10mUrHJ3mJ-31" value="" style="endArrow=none;html=1;rounded=0;entryX=1;entryY=0.5;entryDx=0;entryDy=0;exitX=0.5;exitY=0;exitDx=0;exitDy=0;" edge="1" parent="1" source="gmwgh-llrA10mUrHJ3mJ-30" target="gmwgh-llrA10mUrHJ3mJ-25">
          <mxGeometry width="50" height="50" relative="1" as="geometry">
            <mxPoint x="610" y="350" as="sourcePoint" />
            <mxPoint x="660" y="300" as="targetPoint" />
            <Array as="points">
              <mxPoint x="730" y="360" />
              <mxPoint x="820" y="360" />
              <mxPoint x="820" y="220" />
            </Array>
          </mxGeometry>
        </mxCell>
        <mxCell id="gmwgh-llrA10mUrHJ3mJ-32" value="lcd_data(str)" style="shape=process;whiteSpace=wrap;html=1;backgroundOutline=1;" vertex="1" parent="1">
          <mxGeometry x="320" y="120" width="120" height="40" as="geometry" />
        </mxCell>
        <mxCell id="gmwgh-llrA10mUrHJ3mJ-33" value="Установка режима передачи команды" style="rounded=0;whiteSpace=wrap;html=1;" vertex="1" parent="1">
          <mxGeometry x="320" y="200" width="120" height="40" as="geometry" />
        </mxCell>
        <mxCell id="gmwgh-llrA10mUrHJ3mJ-34" value="Отправка старшего полубайта команды" style="rounded=0;whiteSpace=wrap;html=1;" vertex="1" parent="1">
          <mxGeometry x="320" y="280" width="120" height="40" as="geometry" />
        </mxCell>
        <mxCell id="gmwgh-llrA10mUrHJ3mJ-35" value="Отправка младшего полубайта команды" style="rounded=0;whiteSpace=wrap;html=1;" vertex="1" parent="1">
          <mxGeometry x="320" y="360" width="120" height="40" as="geometry" />
        </mxCell>
        <mxCell id="gmwgh-llrA10mUrHJ3mJ-36" value="return" style="rounded=1;whiteSpace=wrap;html=1;" vertex="1" parent="1">
          <mxGeometry x="340" y="440" width="80" height="40" as="geometry" />
        </mxCell>
        <mxCell id="gmwgh-llrA10mUrHJ3mJ-37" value="" style="endArrow=none;html=1;rounded=0;entryX=0.5;entryY=1;entryDx=0;entryDy=0;exitX=0.5;exitY=0;exitDx=0;exitDy=0;" edge="1" parent="1" source="gmwgh-llrA10mUrHJ3mJ-33" target="gmwgh-llrA10mUrHJ3mJ-32">
          <mxGeometry width="50" height="50" relative="1" as="geometry">
            <mxPoint x="470" y="330" as="sourcePoint" />
            <mxPoint x="520" y="280" as="targetPoint" />
          </mxGeometry>
        </mxCell>
        <mxCell id="gmwgh-llrA10mUrHJ3mJ-38" value="" style="endArrow=none;html=1;rounded=0;entryX=0.5;entryY=1;entryDx=0;entryDy=0;exitX=0.5;exitY=0;exitDx=0;exitDy=0;" edge="1" parent="1">
          <mxGeometry width="50" height="50" relative="1" as="geometry">
            <mxPoint x="379.66" y="280" as="sourcePoint" />
            <mxPoint x="379.66" y="240" as="targetPoint" />
          </mxGeometry>
        </mxCell>
        <mxCell id="gmwgh-llrA10mUrHJ3mJ-39" value="" style="endArrow=none;html=1;rounded=0;entryX=0.5;entryY=1;entryDx=0;entryDy=0;exitX=0.5;exitY=0;exitDx=0;exitDy=0;" edge="1" parent="1">
          <mxGeometry width="50" height="50" relative="1" as="geometry">
            <mxPoint x="379.66" y="360" as="sourcePoint" />
            <mxPoint x="379.66" y="320" as="targetPoint" />
          </mxGeometry>
        </mxCell>
        <mxCell id="gmwgh-llrA10mUrHJ3mJ-40" value="" style="endArrow=none;html=1;rounded=0;entryX=0.5;entryY=1;entryDx=0;entryDy=0;exitX=0.5;exitY=0;exitDx=0;exitDy=0;" edge="1" parent="1">
          <mxGeometry width="50" height="50" relative="1" as="geometry">
            <mxPoint x="379.66" y="440" as="sourcePoint" />
            <mxPoint x="379.66" y="400" as="targetPoint" />
          </mxGeometry>
        </mxCell>
      </root>
    </mxGraphModel>
  </diagram>
</mxfile>
